<!-- <svg id="Layer_1" data-name="Layer 1" fill='black' width='300' height='300' xmlns="http://www.w3.org/2000/svg" viewBox="0 0 100 16"><title>Trade_Icons</title><polygon points="2.67 7.63 5.46 10.41 13.33 2.54 14.85 4.06 5.46 13.46 1.15 9.15 2.67 7.63"/></svg> -->

<svg xmlns="http://www.w3.org/2000/svg" width="40" height="40" viewBox="0 0 40 40" fill="none"><rect width="40" height="40" rx="20" fill="#1B75BC"></rect><path d="M26.9468 14.2137C27.2961 14.5242 27.3275 15.059 27.017 15.4083L17.9914 25.5622C17.8308 25.7428 17.6007 25.8462 17.359 25.8462C17.1173 25.8462 16.8871 25.7428 16.7266 25.5622L12.2137 20.4852C11.9033 20.136 11.9347 19.6011 12.284 19.2907C12.6333 18.9802 13.1681 19.0117 13.4786 19.3609L17.359 23.7264L25.7522 14.284C26.0627 13.9347 26.5975 13.9033 26.9468 14.2137Z" fill="white"></path></svg>
